<svg width="1601" height="4099" viewBox="0 0 1601 4099" fill="none" xmlns="http://www.w3.org/2000/svg">
<path opacity="0.44" d="M406 5H688C798.457 5 888 94.5431 888 205V931.5C888 1041.96 798.457 1131.5 688 1131.5H185C85.5887 1131.5 5 1212.09 5 1311.5V1433.5C5 1532.91 85.5887 1613.5 185 1613.5H688C798.457 1613.5 888 1703.04 888 1813.5V2563C888 2673.46 977.543 2763 1088 2763H1416C1515.41 2763 1596 2843.59 1596 2943V3088.5C1596 3187.91 1515.41 3268.5 1416 3268.5H1088C977.543 3268.5 888 3358.04 888 3468.5V4099" stroke="#D0D0CE" stroke-width="10"/>
</svg>
