<svg width="1642" height="4094" viewBox="0 0 1642 4094" fill="none" xmlns="http://www.w3.org/2000/svg">
<path opacity="0.4" d="M882 0V134.5C882 217.343 814.843 284.5 732 284.5H155C72.1573 284.5 5 351.657 5 434.5V622.5C5 705.343 72.1573 772.5 155 772.5H732C814.843 772.5 882 839.657 882 922.5V1516.5C882 1599.34 949.157 1666.5 1032 1666.5H1487C1569.84 1666.5 1637 1733.66 1637 1816.5V2056.5C1637 2139.34 1569.84 2206.5 1487 2206.5H434C351.157 2206.5 284 2273.66 284 2356.5V2875.5C284 2958.34 351.157 3025.5 434 3025.5H1336C1418.84 3025.5 1486 3092.66 1486 3175.5V3537.5C1486 3620.34 1418.84 3687.5 1336 3687.5H1032C949.157 3687.5 882 3754.66 882 3837.5V4094" stroke="#D0D0CE" stroke-width="10"/>
</svg>
